<?xml version="1.0" encoding="utf-8"?>
<!-- Generator: Adobe Illustrator 24.2.3, SVG Export Plug-In . SVG Version: 6.00 Build 0)  -->
<svg version="1.1" id="Layer_1" xmlns="http://www.w3.org/2000/svg" xmlns:xlink="http://www.w3.org/1999/xlink" x="0px" y="0px"
	 viewBox="0 0 595.16 708.12" style="enable-background:new 0 0 595.16 708.12;" xml:space="preserve">
<style type="text/css">
	.Arched_x0020_Green{fill:url(#SVGID_1_);stroke:#FFFFFF;stroke-width:0.25;stroke-miterlimit:1;}
	.st0{fill:none;}
	.st1{fill:#292966;}
</style>
<linearGradient id="SVGID_1_" gradientUnits="userSpaceOnUse" x1="-10.8784" y1="765.5117" x2="-10.1713" y2="764.8046">
	<stop  offset="0" style="stop-color:#20AC4B"/>
	<stop  offset="0.9831" style="stop-color:#19361A"/>
</linearGradient>
<path class="st0" d="M16.62-112.26"/>
<path class="st0" d="M16.62-112.26"/>
<path class="st0" d="M16.62-112.26"/>
<path class="st0" d="M16.62-112.26"/>
<path class="st0" d="M16.62-112.26"/>
<g>
	<path class="st1" d="M219.45,0l219.26,117.03l-4.49,8.44l-9.34-4.98c-38.86-20.75-68.59-11.84-89.16,26.72l-82.4,154.38
		c-15.8,29.59-36.95,48.23-63.48,55.91c-17.69,5.01-36.61,5.94-56.79,2.76c-20.14-3.15-40.03-9.95-59.61-20.4
		c-18.37-9.81-33.5-21.26-45.44-34.35c-11.93-13.1-20.17-27.09-24.7-41.99c-2.58-9.79-3.65-19.47-3.21-29.08
		c0.45-9.6,2.58-17.97,6.4-25.1c6.23-11.7,15.74-19.55,28.51-23.56c12.77-4.02,25-2.89,36.69,3.35
		c11.67,6.23,19.17,15.02,22.5,26.33c3.31,11.33,1.89,22.76-4.25,34.31c-9.81,18.36-26.8,25.69-50.94,21.95
		c-7.35-1.2-11.67-0.56-12.98,1.85c-2.12,3.95-0.29,10.77,5.46,20.48c7.14,12.2,19.35,22.92,36.66,32.14
		c14.13,7.55,27.52,11.49,40.22,11.82c12.7,0.33,24.23-2.8,34.61-9.46c10.38-6.65,19.13-16.67,26.27-30.01l99.76-186.95
		c20.57-38.55,11.43-68.21-27.42-88.95L214.95,8.42L219.45,0z"/>
	<path class="st1" d="M590.63,208.96l-26.65-14.21c-38.85-20.73-68.58-11.83-89.15,26.73l-99.79,186.93
		c-7.13,13.36-10.56,26.19-10.31,38.54c0.25,12.31,4.04,23.65,11.38,34.01c7.35,10.36,18.08,19.31,32.2,26.84
		c17.3,9.23,33,13.43,47.12,12.57c11.26-0.63,17.94-2.9,20.04-6.85c1.31-2.44-0.6-6.37-5.69-11.83
		c-16.53-17.99-19.9-36.16-10.08-54.54c6.16-11.54,14.85-19.07,26.11-22.62c11.27-3.55,22.74-2.2,34.42,4.04
		c11.7,6.23,19.41,15.77,23.19,28.62c3.78,12.83,2.54,25.09-3.68,36.78c-3.82,7.14-9.58,13.57-17.31,19.29
		c-7.74,5.72-16.39,10.22-25.95,13.51c-14.9,4.52-31.11,5.5-48.63,2.86c-17.52-2.61-35.46-8.84-53.84-18.65
		c-19.58-10.44-36.29-23.16-50.12-38.17c-13.85-14.99-23.61-31.22-29.3-48.69c-8.39-26.32-4.67-54.26,11.12-83.88l82.41-154.36
		c20.58-38.57,11.43-68.22-27.43-88.95l-9.33-4.99l4.48-8.42l219.28,117.03L590.63,208.96z"/>
	<path class="st1" d="M102,615.13l188.35-144.04c9.75-7.64,16.57-15.14,20.46-22.43c4.14-7.74,4.37-29.74,0.72-37.16l50.77,67.74
		L415.81,521c-23.06-12.31-58.02-13.47-89.53,10.48L94.21,708.12l-7.73-4.7"/>
	<path class="st1" d="M86.48,703.42l-8.2-3.79l17.6-291.12c2.37-39.51-16.89-66.87-39.96-79.18l63.32,20.18l82.72,3.53
		c-8.16,1.1-24.54,14.49-28.67,22.24c-3.89,7.27-6.32,17.11-7.26,29.47L151.2,641.4"/>
</g>
</svg>
